<svg width="0" height="0" class="hidden">
  <symbol xmlns="http://www.w3.org/2000/svg" viewBox="0 0 22 18" id="twitter">
    <path d="M22 2.11647C21.1905 2.47545 20.3206 2.71807 19.4076 2.82719C20.3396 2.26856 21.0552 1.38402 21.3922 0.330093C20.5201 0.847281 19.5542 1.22292 18.5261 1.42539C17.7027 0.548169 16.5297 0 15.2315 0C12.7387 0 10.7178 2.02087 10.7178 4.51346C10.7178 4.86722 10.7578 5.21171 10.8347 5.54205C7.08347 5.35382 3.75768 3.5569 1.53153 0.826197C1.14301 1.49282 0.920429 2.26816 0.920429 3.09532C0.920429 4.66121 1.71733 6.04274 2.92842 6.85212C2.18849 6.8287 1.49258 6.62567 0.883975 6.28761C0.883653 6.30644 0.883653 6.32535 0.883653 6.34434C0.883653 8.53123 2.43948 10.3555 4.50429 10.7701C4.12551 10.8733 3.72678 10.9284 3.31509 10.9284C3.02427 10.9284 2.74149 10.9001 2.46596 10.8474C3.04028 12.6406 4.70716 13.9456 6.68224 13.982C5.13752 15.1925 3.19132 15.9141 1.0767 15.9141C0.712411 15.9141 0.353107 15.8928 0 15.8511C1.99745 17.1317 4.36998 17.8789 6.91891 17.8789C15.221 17.8789 19.7608 11.0013 19.7608 5.03685C19.7608 4.84114 19.7565 4.64648 19.7478 4.45295C20.6296 3.81658 21.3949 3.02161 22 2.11647Z" fill="#fff"></path>
  </symbol>
  <symbol xmlns="http://www.w3.org/2000/svg" viewBox="0 0 26 18" id="youtube">
    <path d="M24.895 1.7225C24.1898 0.468 23.4244 0.23725 21.866 0.1495C20.3093 0.043875 16.3946 0 13.0033 0C9.60538 0 5.68913 0.0438751 4.134 0.147875C2.57887 0.23725 1.81187 0.466375 1.10012 1.7225C0.37375 2.97537 0 5.13338 0 8.93263C0 8.93588 0 8.9375 0 8.9375C0 8.94075 0 8.94238 0 8.94238V8.94563C0 12.7286 0.37375 14.9029 1.10012 16.1427C1.81187 17.3972 2.57725 17.6248 4.13237 17.7304C5.68913 17.8214 9.60538 17.875 13.0033 17.875C16.3946 17.875 20.3092 17.8214 21.8676 17.732C23.426 17.6264 24.1914 17.3989 24.8966 16.1444C25.6295 14.9045 26 12.7302 26 8.94725C26 8.94725 26 8.94238 26 8.93913V8.93425C26 5.13338 25.6295 2.97537 24.895 1.7225ZM9.75 13.8125V4.0625L17.875 8.9375L9.75 13.8125Z" fill="#fff"></path>
  </symbol>
  <symbol xmlns="http://www.w3.org/2000/svg" viewBox="0 0 12 24" id="facebook" >
    <path d="M7.5 8.25V5.25C7.5 4.42031 8.17031 3.75 9 3.75H10.5V0H7.5C5.01562 0 3 2.01562 3 4.5V8.25H0V12H3V24H7.5V12H10.5L12 8.25H7.5Z" fill="#fff"></path>
  </symbol>
  <symbol xmlns="http://www.w3.org/2000/svg" viewBox="0 0 22 22" id="instagram">
    <path d="M21.4436 3.0842C21.2247 2.50021 20.8872 1.97097 20.4403 1.5421C20.0116 1.09498 19.4826 0.757362 18.8988 0.538366C18.4245 0.355869 17.7131 0.136873 16.4088 0.0729988C14.995 0.0182497 14.5755 0 10.9909 0C7.41542 0 6.98673 0.00912484 5.57297 0.0821236C4.26866 0.136873 3.55721 0.355869 3.08292 0.538366C2.49917 0.757362 1.97015 1.09498 1.54146 1.5421C1.09453 1.97097 0.757048 2.50021 0.538143 3.0842C0.355721 3.55869 0.136816 4.27043 0.0729685 5.57528C0.0182421 6.98963 0 7.4185 0 10.9954C0 14.5815 0.0182421 15.0012 0.0820896 16.4156C0.145937 17.7204 0.355721 18.4322 0.547264 18.9067C0.766169 19.4907 1.10365 20.0199 1.55058 20.4488C1.97927 20.8959 2.50829 21.2335 3.09204 21.4525C3.56633 21.635 4.27778 21.854 5.58209 21.9179C6.99585 21.9817 7.41542 22 11 22C14.5846 22 15.0041 21.9909 16.4179 21.9179C17.7222 21.854 18.4337 21.6441 18.908 21.4525C20.0755 21.0054 21.0058 20.0747 21.4527 18.9067C21.6352 18.4322 21.8541 17.7204 21.9179 16.4156C21.9818 15.0012 22 14.5724 22 10.9954C22 7.40937 21.9909 6.98963 21.9179 5.57528C21.8449 4.27043 21.626 3.55869 21.4436 3.0842ZM10.9909 17.8847C7.1874 17.8847 4.10448 14.8005 4.10448 10.9954C4.10448 7.19038 7.1874 4.10618 10.9909 4.10618C14.7944 4.10618 17.8773 7.19038 17.8773 10.9954C17.8773 14.8005 14.7944 17.8847 10.9909 17.8847ZM18.1509 5.44753C17.2662 5.44753 16.5456 4.72667 16.5456 3.84156C16.5456 2.95645 17.2662 2.23559 18.1509 2.23559C19.0357 2.23559 19.7562 2.95645 19.7562 3.84156C19.7562 4.72667 19.0357 5.44753 18.1509 5.44753Z" fill="#fff"></path>
  </symbol>
</svg>