<?xml version="1.0" standalone="no"?>
<!DOCTYPE svg PUBLIC "-//W3C//DTD SVG 20010904//EN"
 "http://www.w3.org/TR/2001/REC-SVG-20010904/DTD/svg10.dtd">
<svg version="1.0" xmlns="http://www.w3.org/2000/svg"
 width="200.000000pt" height="200.000000pt" viewBox="0 0 200.000000 200.000000"
 preserveAspectRatio="xMidYMid meet">
<metadata>
Created by potrace 1.14, written by Peter Selinger 2001-2017
</metadata>
<g transform="translate(0.000000,200.000000) scale(0.100000,-0.100000)"
fill="#000000" stroke="none">
<path d="M0 1000 l0 -1000 1000 0 1000 0 0 1000 0 1000 -1000 0 -1000 0 0
-1000z m855 586 c118 -28 171 -31 223 -17 17 5 32 7 32 4 0 -7 -141 -276 -150
-286 -4 -5 -11 8 -15 29 -17 95 -94 192 -174 219 -58 19 -143 19 -211 -1 -75
-22 -168 -115 -199 -199 -42 -110 -53 -190 -47 -320 15 -344 154 -485 476
-485 l100 0 0 234 0 234 -172 4 c-169 3 -218 12 -218 40 0 6 6 5 17 -3 12 -10
62 -15 195 -17 175 -4 178 -3 178 17 0 20 -5 21 -157 21 -226 0 -266 16 -266
105 0 77 65 123 107 76 25 -27 18 -75 -11 -79 -13 -2 -23 -10 -23 -18 0 -12
49 -14 322 -14 l322 0 -62 -63 -62 -63 0 -215 0 -216 55 -52 c30 -29 55 -53
55 -54 0 -1 -154 0 -342 3 -374 6 -383 8 -471 69 -169 118 -257 307 -244 529
3 53 13 124 21 157 54 197 205 343 401 385 62 14 199 3 320 -24z m925 16 c0
-4 -25 -32 -55 -62 l-55 -54 0 -472 0 -471 50 -39 c27 -21 49 -42 50 -46 0 -5
-88 -8 -195 -8 -107 0 -195 3 -194 8 0 4 25 26 55 50 l54 43 0 474 0 474 -55
48 c-30 26 -55 51 -55 56 0 4 90 7 200 7 110 0 200 -4 200 -8z m6 -91 l-46
-47 0 -458 0 -459 70 -78 c39 -42 70 -80 70 -83 0 -11 -458 -7 -465 4 -4 7 67
10 204 10 126 0 211 4 211 9 0 6 -25 37 -55 69 l-55 60 0 468 0 468 47 48 c25
26 51 45 56 41 5 -3 -12 -26 -37 -52z m-616 12 c0 -9 -140 -276 -151 -288 -25
-26 -2 32 63 156 63 120 88 158 88 132z m-372 -52 c20 -10 45 -28 56 -40 14
-16 6 -13 -40 12 -52 28 -68 32 -134 32 -68 0 -80 -3 -127 -33 -93 -60 -129
-135 -146 -305 -22 -225 16 -403 107 -501 49 -52 46 -60 -5 -11 -84 83 -116
172 -126 356 -15 290 65 468 230 510 47 12 142 2 185 -20z m379 -440 l-47 -50
0 -208 0 -208 75 -85 75 -85 -342 -3 c-343 -2 -424 3 -464 33 -16 11 -10 11
41 -1 45 -10 141 -14 388 -14 180 0 327 3 327 6 0 4 -25 35 -56 70 l-55 64 1
222 1 223 46 47 c62 63 69 53 10 -11z"/>
</g>
</svg>
